<?xml version="1.0"?>
<svg width="16" height="16" xmlns="http://www.w3.org/2000/svg" xmlns:svg="http://www.w3.org/2000/svg" class="bi bi-box-arrow-right">
 <g class="layer">
  <title>Layer 1</title>
  <path d="m10,12.5a0.5,0.5 0 0 1 -0.5,0.5l-8,0a0.5,0.5 0 0 1 -0.5,-0.5l0,-9a0.5,0.5 0 0 1 0.5,-0.5l8,0a0.5,0.5 0 0 1 0.5,0.5l0,2a0.5,0.5 0 0 0 1,0l0,-2a1.5,1.5 0 0 0 -1.5,-1.5l-8,0a1.5,1.5 0 0 0 -1.5,1.5l0,9a1.5,1.5 0 0 0 1.5,1.5l8,0a1.5,1.5 0 0 0 1.5,-1.5l0,-2a0.5,0.5 0 0 0 -1,0l0,2z" fill="#ffffff" fill-rule="evenodd" id="svg_1" transform="matrix(1 0 0 1 0 0)"/>
  <path d="m15.85,8.35a0.5,0.5 0 0 0 0,-0.7l-3,-3a0.5,0.5 0 0 0 -0.7,0.7l2.14,2.15l-8.79,0a0.5,0.5 0 0 0 0,1l8.79,0l-2.14,2.15a0.5,0.5 0 0 0 0.7,0.7l3,-3z" fill="#ffffff" fill-rule="evenodd" id="svg_2"/>
 </g>
</svg>